<svg width="320" height="38" viewBox="0 0 320 38" fill="none" xmlns="http://www.w3.org/2000/svg">
<path d="M31.6304 18.0742V19.6929C31.6304 22.4487 31.2485 24.9224 30.4849 27.1138C29.7378 29.3052 28.667 31.1729 27.2725 32.7168C25.8945 34.2607 24.251 35.4478 22.3418 36.2778C20.4492 37.0913 18.3491 37.498 16.0415 37.498C13.7339 37.498 11.6255 37.0913 9.71631 36.2778C7.80713 35.4478 6.14697 34.2607 4.73584 32.7168C3.34131 31.1729 2.26221 29.3052 1.49854 27.1138C0.734863 24.9224 0.353027 22.4487 0.353027 19.6929V18.0742C0.353027 15.3184 0.734863 12.8447 1.49854 10.6533C2.26221 8.44531 3.33301 6.56934 4.71094 5.02539C6.10547 3.48145 7.75732 2.30273 9.6665 1.48926C11.5757 0.65918 13.6841 0.244141 15.9917 0.244141C18.2993 0.244141 20.4077 0.65918 22.3169 1.48926C24.2261 2.30273 25.8696 3.48145 27.2476 5.02539C28.6421 6.56934 29.7212 8.44531 30.4849 10.6533C31.2485 12.8447 31.6304 15.3184 31.6304 18.0742ZM23.4375 19.6929V18.0244C23.4375 16.1816 23.2715 14.5547 22.9395 13.1436C22.6074 11.7158 22.126 10.5205 21.4951 9.55762C20.8643 8.59473 20.084 7.87256 19.1543 7.39111C18.2246 6.89307 17.1704 6.64404 15.9917 6.64404C14.7632 6.64404 13.6924 6.89307 12.7793 7.39111C11.8662 7.87256 11.0942 8.59473 10.4634 9.55762C9.84912 10.5205 9.37598 11.7158 9.04395 13.1436C8.72852 14.5547 8.5708 16.1816 8.5708 18.0244V19.6929C8.5708 21.519 8.72852 23.146 9.04395 24.5737C9.37598 25.9849 9.85742 27.1802 10.4883 28.1597C11.1191 29.1392 11.8911 29.8779 12.8042 30.376C13.7339 30.874 14.813 31.123 16.0415 31.123C17.2202 31.123 18.2661 30.874 19.1792 30.376C20.1089 29.8779 20.8892 29.1392 21.52 28.1597C22.1509 27.1802 22.624 25.9849 22.9395 24.5737C23.2715 23.146 23.4375 21.519 23.4375 19.6929ZM56.458 0.742188H64.5762V24.5488C64.5762 27.3711 63.9785 29.7451 62.7832 31.6709C61.6045 33.5967 59.9609 35.0493 57.8525 36.0288C55.7441 37.0083 53.3037 37.498 50.5312 37.498C47.7422 37.498 45.2852 37.0083 43.1602 36.0288C41.0518 35.0493 39.3916 33.5967 38.1797 31.6709C36.9844 29.7451 36.3867 27.3711 36.3867 24.5488V0.742188H44.5298V24.5488C44.5298 26.1094 44.7622 27.3877 45.2271 28.3838C45.7085 29.3633 46.3975 30.0854 47.2939 30.5503C48.1904 30.9985 49.2695 31.2227 50.5312 31.2227C51.793 31.2227 52.8638 30.9985 53.7437 30.5503C54.6401 30.0854 55.3125 29.3633 55.7607 28.3838C56.2256 27.3877 56.458 26.1094 56.458 24.5488V0.742188ZM70.3784 0.742188H84.2988C87.0713 0.742188 89.4702 1.15723 91.4956 1.9873C93.5376 2.81738 95.1064 4.0459 96.2021 5.67285C97.2979 7.2998 97.8457 9.30859 97.8457 11.6992C97.8457 13.6914 97.522 15.3848 96.8745 16.7793C96.2271 18.1738 95.314 19.3276 94.1353 20.2407C92.9731 21.1538 91.6118 21.8926 90.0513 22.457L87.4116 23.9014H75.5581L75.5083 17.6011H84.3237C85.5356 17.6011 86.54 17.3853 87.3369 16.9536C88.1338 16.522 88.7314 15.916 89.1299 15.1357C89.5449 14.3389 89.7524 13.4092 89.7524 12.3467C89.7524 11.251 89.5449 10.3047 89.1299 9.50781C88.7148 8.71094 88.1006 8.10498 87.2871 7.68994C86.4902 7.2583 85.4941 7.04248 84.2988 7.04248H78.4966V37H70.3784V0.742188ZM90.4497 37L82.3066 20.8882L90.873 20.8633L99.1406 36.6265V37H90.4497ZM119.934 0.742188H126.658L135.374 26.6655L144.064 0.742188H150.788L138.088 37H132.634L119.934 0.742188ZM116.049 0.742188H122.897L124.167 27.6118V37H116.049V0.742188ZM147.825 0.742188H154.698V37H146.555V27.6118L147.825 0.742188ZM169.365 0.742188V37H161.272V0.742188H169.365ZM194.716 27.4375C194.716 26.8232 194.625 26.2754 194.442 25.7939C194.259 25.2959 193.927 24.8394 193.446 24.4243C192.964 24.0093 192.284 23.5942 191.404 23.1792C190.524 22.7476 189.37 22.3076 187.942 21.8594C186.315 21.3281 184.763 20.7305 183.286 20.0664C181.825 19.3857 180.521 18.5972 179.376 17.7007C178.23 16.8042 177.326 15.7583 176.662 14.563C176.014 13.3677 175.69 11.9731 175.69 10.3794C175.69 8.83545 176.031 7.44092 176.711 6.1958C177.392 4.95068 178.347 3.88818 179.575 3.0083C180.804 2.11182 182.248 1.43115 183.908 0.966309C185.568 0.484863 187.395 0.244141 189.387 0.244141C192.043 0.244141 194.375 0.717285 196.384 1.66357C198.41 2.59326 199.987 3.90479 201.116 5.59814C202.245 7.2749 202.809 9.22559 202.809 11.4502H194.741C194.741 10.4707 194.533 9.60742 194.118 8.86035C193.72 8.09668 193.105 7.49902 192.275 7.06738C191.462 6.63574 190.441 6.41992 189.212 6.41992C188.017 6.41992 187.013 6.60254 186.199 6.96777C185.402 7.31641 184.796 7.79785 184.381 8.41211C183.983 9.02637 183.784 9.69873 183.784 10.4292C183.784 11.0103 183.933 11.5415 184.232 12.0229C184.547 12.4878 184.996 12.9277 185.577 13.3428C186.174 13.7412 186.905 14.123 187.768 14.4883C188.631 14.8535 189.619 15.2021 190.731 15.5342C192.674 16.1484 194.392 16.8291 195.886 17.5762C197.397 18.3232 198.667 19.1699 199.696 20.1162C200.726 21.0625 201.498 22.1333 202.012 23.3286C202.543 24.5239 202.809 25.877 202.809 27.3877C202.809 28.998 202.494 30.4258 201.863 31.6709C201.249 32.916 200.352 33.9785 199.173 34.8584C198.011 35.7217 196.617 36.3774 194.99 36.8257C193.363 37.2739 191.545 37.498 189.536 37.498C187.71 37.498 185.909 37.2656 184.132 36.8008C182.356 36.3193 180.746 35.5889 179.301 34.6094C177.874 33.6299 176.728 32.3848 175.865 30.874C175.018 29.3467 174.595 27.5371 174.595 25.4453H182.713C182.713 26.541 182.871 27.4707 183.186 28.2344C183.501 28.9814 183.95 29.5874 184.531 30.0522C185.128 30.5171 185.851 30.8491 186.697 31.0483C187.544 31.2476 188.49 31.3472 189.536 31.3472C190.748 31.3472 191.728 31.1812 192.475 30.8491C193.238 30.5005 193.803 30.0273 194.168 29.4297C194.533 28.832 194.716 28.168 194.716 27.4375ZM226.392 27.4375C226.392 26.8232 226.3 26.2754 226.118 25.7939C225.935 25.2959 225.603 24.8394 225.122 24.4243C224.64 24.0093 223.959 23.5942 223.08 23.1792C222.2 22.7476 221.046 22.3076 219.618 21.8594C217.991 21.3281 216.439 20.7305 214.961 20.0664C213.5 19.3857 212.197 18.5972 211.052 17.7007C209.906 16.8042 209.001 15.7583 208.337 14.563C207.69 13.3677 207.366 11.9731 207.366 10.3794C207.366 8.83545 207.707 7.44092 208.387 6.1958C209.068 4.95068 210.022 3.88818 211.251 3.0083C212.479 2.11182 213.924 1.43115 215.584 0.966309C217.244 0.484863 219.07 0.244141 221.062 0.244141C223.719 0.244141 226.051 0.717285 228.06 1.66357C230.085 2.59326 231.663 3.90479 232.792 5.59814C233.92 7.2749 234.485 9.22559 234.485 11.4502H226.417C226.417 10.4707 226.209 9.60742 225.794 8.86035C225.396 8.09668 224.781 7.49902 223.951 7.06738C223.138 6.63574 222.117 6.41992 220.888 6.41992C219.693 6.41992 218.688 6.60254 217.875 6.96777C217.078 7.31641 216.472 7.79785 216.057 8.41211C215.659 9.02637 215.459 9.69873 215.459 10.4292C215.459 11.0103 215.609 11.5415 215.908 12.0229C216.223 12.4878 216.671 12.9277 217.252 13.3428C217.85 13.7412 218.581 14.123 219.444 14.4883C220.307 14.8535 221.295 15.2021 222.407 15.5342C224.35 16.1484 226.068 16.8291 227.562 17.5762C229.073 18.3232 230.343 19.1699 231.372 20.1162C232.401 21.0625 233.173 22.1333 233.688 23.3286C234.219 24.5239 234.485 25.877 234.485 27.3877C234.485 28.998 234.169 30.4258 233.539 31.6709C232.924 32.916 232.028 33.9785 230.849 34.8584C229.687 35.7217 228.292 36.3774 226.666 36.8257C225.039 37.2739 223.221 37.498 221.212 37.498C219.386 37.498 217.584 37.2656 215.808 36.8008C214.032 36.3193 212.421 35.5889 210.977 34.6094C209.549 33.6299 208.404 32.3848 207.541 30.874C206.694 29.3467 206.271 27.5371 206.271 25.4453H214.389C214.389 26.541 214.546 27.4707 214.862 28.2344C215.177 28.9814 215.625 29.5874 216.207 30.0522C216.804 30.5171 217.526 30.8491 218.373 31.0483C219.22 31.2476 220.166 31.3472 221.212 31.3472C222.424 31.3472 223.403 31.1812 224.15 30.8491C224.914 30.5005 225.479 30.0273 225.844 29.4297C226.209 28.832 226.392 28.168 226.392 27.4375ZM247.907 0.742188V37H239.814V0.742188H247.907ZM284.688 18.0742V19.6929C284.688 22.4487 284.306 24.9224 283.542 27.1138C282.795 29.3052 281.725 31.1729 280.33 32.7168C278.952 34.2607 277.309 35.4478 275.399 36.2778C273.507 37.0913 271.407 37.498 269.099 37.498C266.792 37.498 264.683 37.0913 262.774 36.2778C260.865 35.4478 259.205 34.2607 257.793 32.7168C256.399 31.1729 255.32 29.3052 254.556 27.1138C253.792 24.9224 253.411 22.4487 253.411 19.6929V18.0742C253.411 15.3184 253.792 12.8447 254.556 10.6533C255.32 8.44531 256.391 6.56934 257.769 5.02539C259.163 3.48145 260.815 2.30273 262.724 1.48926C264.633 0.65918 266.742 0.244141 269.049 0.244141C271.357 0.244141 273.465 0.65918 275.375 1.48926C277.284 2.30273 278.927 3.48145 280.305 5.02539C281.7 6.56934 282.779 8.44531 283.542 10.6533C284.306 12.8447 284.688 15.3184 284.688 18.0742ZM276.495 19.6929V18.0244C276.495 16.1816 276.329 14.5547 275.997 13.1436C275.665 11.7158 275.184 10.5205 274.553 9.55762C273.922 8.59473 273.142 7.87256 272.212 7.39111C271.282 6.89307 270.228 6.64404 269.049 6.64404C267.821 6.64404 266.75 6.89307 265.837 7.39111C264.924 7.87256 264.152 8.59473 263.521 9.55762C262.907 10.5205 262.434 11.7158 262.102 13.1436C261.786 14.5547 261.628 16.1816 261.628 18.0244V19.6929C261.628 21.519 261.786 23.146 262.102 24.5737C262.434 25.9849 262.915 27.1802 263.546 28.1597C264.177 29.1392 264.949 29.8779 265.862 30.376C266.792 30.874 267.871 31.123 269.099 31.123C270.278 31.123 271.324 30.874 272.237 30.376C273.167 29.8779 273.947 29.1392 274.578 28.1597C275.208 27.1802 275.682 25.9849 275.997 24.5737C276.329 23.146 276.495 21.519 276.495 19.6929ZM319.576 0.742188V37H311.483L297.787 13.5669V37H289.668V0.742188H297.787L311.508 24.1753V0.742188H319.576Z" fill="white"/>
</svg>
